<svg xmlns="http://www.w3.org/2000/svg" width="1em" height="1em" fill="none" viewBox="0 0 55 55" class="tdesign-starter-side-nav-logo-tdesign-logo"><g style="mix-blend-mode:passthrough;"><g style="mix-blend-mode:passthrough;"><path fill="#006EFF" d="M0 42.56V13.44C0 6.017 6.017 0 13.44 0h29.12C49.983 0 56 6.017 56 13.44v29.12C56 49.983 49.983 56 42.56 56H13.44C6.017 56 0 49.983 0 42.56" style="mix-blend-mode:passthrough;"></path><path fill="#FFF" d="M44.027 11.94q.705.706.74 1.766v23.929q-.035 1.056-.74 1.765-.705.706-1.766.74h-9.246l-4.517 4.518a.72.72 0 0 1-.46.142.7.7 0 0 1-.459-.142l-4.517-4.517h-9.244q-1.056-.036-1.765-.74-.706-.706-.741-1.766V13.706q.036-1.056.74-1.765.706-.706 1.766-.741h9.246l4.518 4.517a.62.62 0 0 0 .459.176.63.63 0 0 0 .46-.176l4.517-4.517h9.246q1.053.035 1.763.74m-5.465 9.118q-.09-.775-.617-1.448a1.46 1.46 0 0 0-1.236-.406q-.706.09-1.237.617l-7.692 8.823-4.517-4.058q-.704-.529-1.448-.493-.74.035-1.27.705-.495.53-.46 1.236.036.706.705 1.237l5.86 5.648q.177.177.477.317.3.143.653.142 1.023 0 1.343-.671l9.034-10.165q.494-.709.405-1.484"></path></g></g></svg>