<svg xmlns="http://www.w3.org/2000/svg" xmlns:xlink="http://www.w3.org/1999/xlink" fill="none" version="1.1" width="1em"  height="1em" viewBox="0 0 200 55"><g style="mix-blend-mode:passthrough"><g style="mix-blend-mode:passthrough"><g style="mix-blend-mode:passthrough"><path d="M68.59894908447265,15.427880381469727L65.49815408447266,15.427880381469727L65.49815408447266,9.316750381469728L69.92511908447266,9.316750381469728L70.66187908447266,6.010833381469727L76.96599908447266,6.010833381469727L76.27409908447265,9.316750381469728L84.44249908447266,9.316750381469728L84.44249908447266,15.427880381469727L74.94148908447266,15.427880381469727L72.73120908447265,25.775700381469726L74.69803908447265,25.775700381469726L74.69803908447265,18.355100381469725L80.36149908447265,18.355100381469725L80.36149908447265,25.775700381469726L84.34639908447265,25.775700381469726L84.34639908447265,31.976700381469726L80.36149908447265,31.976700381469726L80.36149908447265,36.181300381469725L84.44249908447266,35.533000381469726L84.44249908447266,41.939400381469724L80.36149908447265,42.58780038146973L80.36149908447265,50.400000381469724L74.10862908447265,50.400000381469724L74.10862908447265,43.57630038146973L65.00484528447265,45.00780038146973L65.00484528447265,38.61420038146973L74.10862908447265,37.17630038146973L74.10862908447265,31.976700381469726L64.95999908447266,31.976700381469726L68.59894908447265,15.427880381469727ZM84.89729908447265,43.82670038146973L94.39189908447266,43.82670038146973L94.39189908447266,34.69210038146973L86.12739908447266,34.69210038146973L86.12739908447266,28.625900381469727L108.66579908447267,28.625900381469727L108.66579908447267,34.69210038146973L100.69599908447265,34.69210038146973L100.69599908447265,43.82670038146973L110.19059908447267,43.82670038146973L110.19059908447267,49.89290038146973L84.89729908447265,49.89290038146973L84.89729908447265,43.82670038146973ZM85.24329908447265,20.370700381469725Q94.14849908447266,18.887900381469727,98.92139908447265,12.718960381469728L86.22349908447265,12.718960381469728L86.22349908447265,6.601400381469727L108.51849908447267,6.601400381469727Q106.84639908447267,13.264590381469727,102.95759908447266,17.80940038146973L109.74859908447266,20.614600381469728L109.74859908447266,26.809200381469726L98.08849908447266,22.187400381469725Q92.71979908447265,25.820700381469727,85.24329908447265,26.661600381469725L85.24329908447265,20.370700381469725ZM131.82569908447266,49.98920038146973Q136.93179908447266,36.906700381469726,139.75709908447266,23.676600381469726L146.30459908447267,23.676600381469726Q143.84449908447266,34.68570038146973,140.83979908447265,43.871600381469726L150.78279908447266,43.871600381469726Q149.25809908447266,37.90810038146973,147.92549908447268,31.103700381469725L154.03099908447265,31.103700381469725Q155.74799908447267,40.27680038146973,158.84879908447266,49.98920038146973L131.82569908447266,49.98920038146973ZM114.22679908447266,46.933600381469724Q116.13589908447265,33.77410038146972,116.13589908447265,19.17670038146973L121.23559908447265,19.17670038146973Q121.23559908447265,34.903900381469725,119.46739908447265,46.933600381469724L114.22679908447266,46.933600381469724ZM115.30309908447265,11.011440381469725L123.09989908447265,11.011440381469725L123.09989908447265,5.786158381469726L129.22459908447266,5.786158381469726L129.22459908447266,11.011440381469725L133.56189908447266,11.011440381469725L133.56189908447266,17.122600381469727L129.22459908447266,17.122600381469727L129.22459908447266,23.869200381469728L131.03769908447265,24.992600381469728Q134.86879908447264,15.928600381469726,136.36799908447267,6.030090381469726L142.66569908447264,6.030090381469726Q141.23699908447264,16.56410038146973,137.34819908447264,26.314900381469727L133.10059908447266,26.314900381469727L133.10059908447266,33.42110038146973L129.22459908447266,31.007400381469726L129.22459908447266,50.400000381469724L123.09989908447265,50.400000381469724L123.09989908447265,17.122600381469727L115.30309908447265,17.122600381469727L115.30309908447265,11.011440381469725ZM154.22319908447264,6.030090381469726Q155.74799908447267,16.46780038146973,160.03399908447267,26.314900381469727L153.24299908447267,26.314900381469727Q149.35419908447267,16.56410038146973,147.92549908447268,6.030090381469726L154.22319908447264,6.030090381469726ZM162.91689908447267,44.924400381469724Q169.02199908447267,34.85260038146973,171.57899908447266,24.780700381469728L163.90359908447266,24.780700381469728L163.90359908447266,18.765900381469727L182.50199908447266,18.765900381469727L182.50199908447266,15.068410381469727L168.13199908447265,15.068410381469727L168.13199908447265,8.957270381469726L182.50199908447266,8.957270381469726L182.50199908447266,5.600000381469727L188.89599908447266,5.600000381469727L188.89599908447266,8.957270381469726L197.55699908447266,8.957270381469726L197.55699908447266,14.773120381469727L200.76099908447264,7.326780381469726L207.39799908447264,7.326780381469726L202.62499908447265,18.765900381469727L208.18599908447266,18.765900381469727L208.18599908447266,24.780700381469728L178.22199908447266,24.780700381469728Q177.87599908447265,26.045300381469726,177.58199908447267,26.982500381469727L208.67899908447265,26.982500381469727L208.67899908447265,32.894700381469725L185.30799908447267,32.894700381469725L184.76299908447265,35.19920038146972L204.64299908447265,35.19920038146972L203.55999908447265,50.400000381469724L189.53599908447265,50.400000381469724L189.53599908447265,44.38520038146973L197.70499908447266,44.38520038146973L197.90299908447267,41.015000381469726L176.99199908447264,41.015000381469726L178.86299908447268,32.894700381469725L175.71099908447266,32.894700381469725Q173.50099908447265,39.037900381469726,170.29699908447265,44.924400381469724L162.91689908447267,44.924400381469724ZM195.98099908447264,18.765900381469727L197.46099908447266,15.068410381469727L188.89599908447266,15.068410381469727L188.89599908447266,18.765900381469727L195.98099908447264,18.765900381469727Z" fill="#3D3D3D" fill-opacity="1"/></g><g style="mix-blend-mode:passthrough"><g style="mix-blend-mode:passthrough"><path d="M0,42.56L0,13.44C0,6.01729,6.01729,0,13.44,0L42.56,0C49.9827,0,56,6.01729,56,13.44L56,42.56C56,49.9827,49.9827,56,42.56,56L13.44,56C6.01729,56,0,49.9827,0,42.56Z" fill="#006EFF" fill-opacity="1"/></g><g><path d="M44.0266002746582,11.940815762939453C44.4964002746582,12.410600762939453,44.744200274658205,12.999120762939453,44.767500274658204,13.706380762939453L44.767500274658204,37.63450076293945C44.744200274658205,38.339200762939456,44.4964002746582,38.92770076293945,44.0266002746582,39.40010076293945C43.556900274658204,39.86980076293945,42.968300274658205,40.11760076293945,42.261100274658205,40.14090076293945L33.0151002746582,40.14090076293945L28.497900274658203,44.65800076293945C28.379200274658203,44.751000762939455,28.226900274658203,44.800000762939455,28.038400274658205,44.800000762939455C27.850000274658203,44.800000762939455,27.697700274658203,44.75350076293945,27.579000274658203,44.65800076293945L23.061800274658204,40.14090076293945L13.818380274658203,40.14090076293945C13.113710274658203,40.11760076293945,12.525180274658203,39.86980076293945,12.052816274658204,39.40010076293945C11.583030274658203,38.93030076293945,11.335231274658202,38.34170076293945,11.312000274658203,37.63450076293945L11.312000274658203,13.706380762939453C11.335231274658202,13.001710762939453,11.583030274658203,12.413180762939453,12.052816274658204,11.940816762939454C12.522600274658203,11.471030762939453,13.111120274658203,11.223231762939452,13.818380274658203,11.200000762939453L23.064400274658205,11.200000762939453L27.581600274658204,15.717170762939453C27.700300274658204,15.835910762939452,27.852600274658204,15.892690762939452,28.041000274658202,15.892690762939452C28.229400274658204,15.892690762939452,28.381700274658204,15.833330762939454,28.500500274658204,15.717170762939453L33.01760027465821,11.200001156805452L42.2636002746582,11.200001156805452C42.965700274658204,11.223232162939453,43.5543002746582,11.471031762939454,44.0266002746582,11.940815762939453ZM38.5622002746582,21.057760762939452C38.5028002746582,20.541510762939453,38.29630027465821,20.058820762939455,37.945200274658205,19.609680762939455C37.591600274658205,19.279280762939454,37.1812002746582,19.14506076293945,36.7088002746582,19.204430762939452C36.2390002746582,19.26379076293945,35.8260002746582,19.470290762939452,35.4724002746582,19.821340762939453L27.780300274658202,28.644000762939452L23.263100274658203,24.58630076293945C22.793400274658204,24.23270076293945,22.310700274658203,24.070100762939454,21.815100274658203,24.093300762939453C21.3220002746582,24.116500762939452,20.898730274658202,24.351400762939456,20.545100274658203,24.798000762939452C20.214700274658203,25.151600762939452,20.062400274658202,25.562000762939455,20.085640274658203,26.034400762939455C20.1088702746582,26.504200762939455,20.3437602746582,26.91720076293945,20.790310274658204,27.27080076293945L26.6497002746582,32.91860076293945C26.7685002746582,33.03730076293945,26.925900274658204,33.143100762939454,27.127300274658204,33.23610076293946C27.326000274658202,33.33160076293945,27.545400274658203,33.37800076293945,27.780300274658202,33.37800076293945C28.461800274658202,33.37800076293945,28.910900274658204,33.15350076293945,29.122600274658204,32.706900762939455L38.1569002746582,22.542000762939452C38.4847002746582,22.06960076293945,38.6215002746582,21.574000762939455,38.5622002746582,21.057760762939452Z" fill="#FFFFFF" fill-opacity="1"/></g></g></g></g></svg>